<svg width="32" height="32" viewBox="0 0 32 32" fill="none" xmlns="http://www.w3.org/2000/svg">
<path d="M15.9987 14.5973C14.5107 14.5973 13.0836 14.0062 12.0314 12.954C10.9792 11.9018 10.3881 10.4747 10.3881 8.98664C10.3881 7.4986 10.9792 6.0715 12.0314 5.0193C13.0836 3.9671 14.5107 3.37598 15.9987 3.37598C17.4868 3.37598 18.9139 3.9671 19.9661 5.0193C21.0183 6.0715 21.6094 7.4986 21.6094 8.98664C21.6094 10.4747 21.0183 11.9018 19.9661 12.954C18.9139 14.0062 17.4868 14.5973 15.9987 14.5973Z" stroke="white" stroke-width="1.4" stroke-linecap="round"/>
<path d="M4.77808 28.6238V27.2212C4.77808 24.9891 5.66476 22.8485 7.24306 21.2702C8.82137 19.6919 10.962 18.8052 13.1941 18.8052H18.8047C21.0368 18.8052 23.1774 19.6919 24.7557 21.2702C26.334 22.8485 27.2207 24.9891 27.2207 27.2212V28.6238" stroke="white" stroke-width="1.4" stroke-linecap="round"/>
</svg>
