<svg width="24" height="24" viewBox="0 0 24 24" fill="none" xmlns="http://www.w3.org/2000/svg">
<path d="M23.7935 5.42007C23.6552 4.80436 23.4417 4.21373 23.1593 3.66541L23.7935 5.42007ZM23.7935 5.42007C23.9389 6.05646 24.0081 6.71225 23.9992 7.3697L23.7935 5.42007ZM22.482 3.98754L22.4871 3.99828L22.4925 4.00885C22.7451 4.49919 22.9371 5.0295 23.0618 5.58445L23.0624 5.58712C23.1944 6.16498 23.2574 6.76128 23.2493 7.35956L23.2492 7.36671L23.2493 7.37386C23.2556 8.51036 22.9922 9.62321 22.4924 10.5943L22.4884 10.6022L22.4845 10.6102C22.2398 11.1145 21.9304 11.5767 21.5717 11.9777L21.5717 11.9777L21.5675 11.9825L12 22.8642L2.43246 11.9825L2.43056 11.9803C2.06891 11.5722 1.75394 11.1094 1.49497 10.6032C1.25512 10.1081 1.0675 9.5806 0.936822 9.03185C0.812973 8.49024 0.750749 7.93141 0.750749 7.3697H0.750817L0.750682 7.35963C0.742649 6.76131 0.805646 6.16497 0.937626 5.58705L0.937662 5.58706L0.939241 5.57982C1.18622 4.44687 1.70478 3.42582 2.42567 2.62804L2.42571 2.62807L2.43163 2.62137C2.9621 2.02005 3.58505 1.54737 4.26306 1.22446C5.61964 0.592091 7.13365 0.591846 8.49035 1.22373C9.12253 1.52869 9.70936 1.95604 10.224 2.49091L10.2808 2.56848L10.3005 2.59538L10.3225 2.62043L11.4367 3.88769L12 4.5283L12.5632 3.88769L13.6775 2.62043L13.6995 2.59538L13.7192 2.56848L13.776 2.49092C14.2906 1.95604 14.8775 1.52869 15.5096 1.22373C16.8663 0.591849 18.3803 0.59209 19.7369 1.22445C20.4149 1.54736 21.0379 2.02005 21.5684 2.62137L21.5683 2.62143L21.5764 2.63034C21.9352 3.02405 22.2413 3.48138 22.482 3.98754Z" stroke="black" stroke-width="1.5"/>
</svg>
