<svg width="19" height="16" viewBox="0 0 19 16" fill="none" xmlns="http://www.w3.org/2000/svg">
<path d="M17.4637 2.93537L17.4723 2.95055L17.4814 2.96541C17.6552 3.24957 17.7859 3.55447 17.8703 3.87113L17.8714 3.87523C17.9621 4.2092 18.0051 4.55286 17.9995 4.89708L17.9993 4.9084L17.9994 4.91972C18.0037 5.56691 17.826 6.20599 17.4812 6.77021L17.4744 6.78128L17.4679 6.79252C17.3006 7.08293 17.0866 7.3532 16.8347 7.59043L16.8347 7.5904L16.8285 7.59628L9.5 14.6153L2.17148 7.59628L2.17148 7.59628L2.1687 7.59364C1.91315 7.35074 1.69287 7.07797 1.51283 6.78268C1.34654 6.49259 1.21721 6.18546 1.12712 5.86779C1.04287 5.55653 1.00059 5.23569 1.00059 4.91313V4.90516L1.00047 4.89719C0.994977 4.5529 1.03799 4.20917 1.12858 3.87512L1.12864 3.87514L1.13153 3.86399C1.29908 3.21675 1.65374 2.62162 2.16155 2.14837L2.1616 2.14842L2.17027 2.14015C2.54686 1.78067 2.99494 1.49249 3.49067 1.2935C4.48785 0.902415 5.60777 0.902166 6.60511 1.29275C7.05954 1.4776 7.47668 1.73272 7.84015 2.04637L7.86349 2.0732L7.89336 2.10752L7.92622 2.13899L8.8083 2.98383L9.5 3.64632L10.1917 2.98383L11.0738 2.13899L11.1066 2.10753L11.1365 2.07321L11.1598 2.04637C11.5233 1.73272 11.9405 1.47759 12.3949 1.29275C13.3922 0.902162 14.5122 0.902417 15.5093 1.29351C16.0051 1.4925 16.4531 1.78067 16.8297 2.14015L16.8356 2.14572L16.8415 2.1512C17.0911 2.3819 17.3006 2.64662 17.4637 2.93537Z" stroke="#B7B5B5" stroke-width="2"/>
</svg>
