<svg width="198" height="31" viewBox="0 0 198 31" fill="none" xmlns="http://www.w3.org/2000/svg">
<path d="M4.8 30.4C4.10667 30.4 3.56 30.2133 3.16 29.84C2.76 29.4667 2.56 28.9467 2.56 28.28V7.56C2.56 5.82666 3.06667 4.46666 4.08 3.48C5.09333 2.49333 6.50667 2 8.32 2H15.12C19.0667 2 22.0533 2.82667 24.08 4.48C26.1333 6.13333 27.16 8.57333 27.16 11.8C27.16 14.9733 26.1467 17.3867 24.12 19.04C22.12 20.6667 19.1867 21.48 15.32 21.48H7.12V28.28C7.12 28.92 6.90667 29.44 6.48 29.84C6.05333 30.2133 5.49333 30.4 4.8 30.4ZM15.28 17.88C20.1333 17.88 22.56 15.8533 22.56 11.8C22.56 9.66667 21.9467 8.09333 20.72 7.08C19.52 6.06667 17.72 5.56 15.32 5.56H8.96C8.37333 5.56 7.92 5.74667 7.6 6.12C7.28 6.49333 7.12 7 7.12 7.64V17.88H15.28ZM40.0247 30.4C37.7314 30.4 35.7314 30 34.0247 29.2C32.3447 28.3733 31.0514 27.2 30.1447 25.68C29.2647 24.16 28.8247 22.36 28.8247 20.28C28.8247 17.0533 29.7847 14.5333 31.7047 12.72C33.6247 10.9067 36.2914 10 39.7047 10C41.8114 10 43.678 10.3333 45.3047 11C46.9314 11.6667 48.198 12.6 49.1047 13.8C50.0114 14.9733 50.4647 16.32 50.4647 17.84C50.4647 19.0667 50.0914 20.0133 49.3447 20.68C48.598 21.3467 47.5447 21.68 46.1847 21.68H33.2247C33.2247 23.3333 33.8114 24.6133 34.9847 25.52C36.158 26.4267 37.838 26.88 40.0247 26.88C41.278 26.88 42.3847 26.7467 43.3447 26.48C44.3047 26.2133 45.198 25.7867 46.0247 25.2C46.798 24.6933 47.3847 24.44 47.7847 24.44C48.1314 24.44 48.4914 24.6267 48.8647 25C49.2914 25.4 49.5047 25.84 49.5047 26.32C49.5047 26.8267 49.278 27.2533 48.8247 27.6C46.5847 29.4667 43.6514 30.4 40.0247 30.4ZM44.8247 18.44C45.278 18.44 45.6114 18.3467 45.8247 18.16C46.038 17.9733 46.1447 17.6533 46.1447 17.2C46.1447 16.1067 45.558 15.2267 44.3847 14.56C43.2114 13.8667 41.6514 13.52 39.7047 13.52C37.7314 13.52 36.1714 13.9733 35.0247 14.88C33.878 15.76 33.3047 16.9467 33.3047 18.44H44.8247ZM56.4313 30.4C55.7379 30.4 55.1913 30.2133 54.7913 29.84C54.3913 29.4667 54.1913 28.9467 54.1913 28.28V12.12C54.1913 11.4533 54.3779 10.9333 54.7513 10.56C55.1513 10.1867 55.6846 10 56.3513 10C57.0446 10 57.5779 10.1867 57.9513 10.56C58.3513 10.9333 58.5513 11.4533 58.5513 12.12V13.8C60.2846 11.5333 62.5646 10.4 65.3913 10.4H66.3113C67.0313 10.4 67.5913 10.56 67.9913 10.88C68.4179 11.2 68.6313 11.64 68.6313 12.2C68.6313 12.7867 68.4179 13.24 67.9913 13.56C67.5913 13.8533 67.0313 14 66.3113 14H65.0313C63.0846 14 61.5379 14.6 60.3913 15.8C59.2446 16.9733 58.6713 18.5867 58.6713 20.64V28.28C58.6713 28.92 58.4579 29.44 58.0313 29.84C57.6313 30.2133 57.0979 30.4 56.4313 30.4ZM85.4766 2.04C86.0099 2.41333 86.2766 2.86666 86.2766 3.4C86.2766 3.77333 86.1566 4.12 85.9166 4.44C85.5166 5 85.0632 5.28 84.5566 5.28C84.2632 5.28 83.8632 5.17333 83.3566 4.96C82.3432 4.45333 81.3166 4.2 80.2766 4.2C79.4499 4.2 78.7966 4.45333 78.3166 4.96C77.8632 5.44 77.6366 6.12 77.6366 7V10.4H82.5966C83.2899 10.4 83.8366 10.56 84.2366 10.88C84.6632 11.2 84.8766 11.64 84.8766 12.2C84.8766 12.7333 84.6632 13.16 84.2366 13.48C83.8366 13.8 83.2899 13.96 82.5966 13.96H77.6366V28.28C77.6366 28.9467 77.4366 29.4667 77.0366 29.84C76.6366 30.2133 76.0899 30.4 75.3966 30.4C74.7032 30.4 74.1566 30.2133 73.7566 29.84C73.3566 29.4667 73.1566 28.9467 73.1566 28.28V13.96H71.9166C71.2232 13.96 70.6632 13.8 70.2366 13.48C69.8366 13.16 69.6366 12.7333 69.6366 12.2C69.6366 11.64 69.8366 11.2 70.2366 10.88C70.6366 10.56 71.1966 10.4 71.9166 10.4H73.1566V7.16C73.1566 5.18667 73.7699 3.6 74.9966 2.4C76.2232 1.2 77.8366 0.599999 79.8366 0.599999C81.0899 0.599999 82.1699 0.719999 83.0766 0.96C83.9832 1.17333 84.7832 1.53333 85.4766 2.04ZM95.8725 30.4C93.1792 30.4 91.0725 29.6267 89.5525 28.08C88.0325 26.5067 87.2725 24.3333 87.2725 21.56V12.12C87.2725 11.4533 87.4725 10.9333 87.8725 10.56C88.2992 10.1867 88.8592 10 89.5525 10C90.2458 10 90.7792 10.1867 91.1525 10.56C91.5525 10.9333 91.7525 11.4533 91.7525 12.12V21.56C91.7525 23.2133 92.1925 24.5067 93.0725 25.44C93.9525 26.3467 95.1792 26.8 96.7525 26.8C98.7258 26.8 100.299 26.1733 101.473 24.92C102.646 23.64 103.233 21.92 103.233 19.76V12.12C103.233 11.4533 103.433 10.9333 103.833 10.56C104.233 10.1867 104.779 10 105.473 10C106.166 10 106.713 10.1867 107.113 10.56C107.513 10.9333 107.713 11.4533 107.713 12.12V28.28C107.713 28.9467 107.526 29.4667 107.153 29.84C106.779 30.2133 106.246 30.4 105.553 30.4C104.859 30.4 104.313 30.2133 103.913 29.84C103.539 29.44 103.353 28.92 103.353 28.28V26.72C101.406 29.1733 98.9125 30.4 95.8725 30.4Z" fill="white"/>
<path d="M114.643 30.4C113.949 30.4 113.389 30.2133 112.963 29.84C112.563 29.4667 112.363 28.9467 112.363 28.28V11.24C112.363 8.22667 113.216 5.86667 114.923 4.16C116.656 2.45333 119.016 1.6 122.003 1.6C123.523 1.6 124.949 1.98666 126.283 2.76C127.643 3.53333 128.749 4.6 129.603 5.96C130.456 4.57333 131.549 3.50666 132.883 2.76C134.216 1.98666 135.683 1.6 137.283 1.6C140.296 1.6 142.643 2.45333 144.323 4.16C146.029 5.86667 146.883 8.22667 146.883 11.24V28.28C146.883 28.92 146.669 29.44 146.243 29.84C145.843 30.2133 145.296 30.4 144.603 30.4C143.909 30.4 143.349 30.2133 142.923 29.84C142.523 29.4667 142.323 28.9467 142.323 28.28V11.24C142.323 9.18667 141.909 7.68 141.083 6.72C140.283 5.76 138.963 5.28 137.123 5.28C135.443 5.28 134.149 5.8 133.243 6.84C132.336 7.88 131.883 9.34667 131.883 11.24V28.28C131.883 28.9467 131.669 29.4667 131.243 29.84C130.843 30.2133 130.296 30.4 129.603 30.4C128.909 30.4 128.363 30.2133 127.963 29.84C127.589 29.4667 127.403 28.9467 127.403 28.28V11.24C127.403 9.37333 126.936 7.92 126.003 6.88C125.069 5.81333 123.789 5.28 122.163 5.28C120.296 5.28 118.949 5.76 118.123 6.72C117.323 7.68 116.923 9.18667 116.923 11.24V28.28C116.923 28.92 116.709 29.44 116.283 29.84C115.883 30.2133 115.336 30.4 114.643 30.4ZM162.095 30.4C159.802 30.4 157.802 30 156.095 29.2C154.415 28.3733 153.122 27.2 152.215 25.68C151.335 24.16 150.895 22.36 150.895 20.28C150.895 17.0533 151.855 14.5333 153.775 12.72C155.695 10.9067 158.362 10 161.775 10C163.882 10 165.748 10.3333 167.375 11C169.002 11.6667 170.268 12.6 171.175 13.8C172.082 14.9733 172.535 16.32 172.535 17.84C172.535 19.0667 172.162 20.0133 171.415 20.68C170.668 21.3467 169.615 21.68 168.255 21.68H155.295C155.295 23.3333 155.882 24.6133 157.055 25.52C158.228 26.4267 159.908 26.88 162.095 26.88C163.348 26.88 164.455 26.7467 165.415 26.48C166.375 26.2133 167.268 25.7867 168.095 25.2C168.868 24.6933 169.455 24.44 169.855 24.44C170.202 24.44 170.562 24.6267 170.935 25C171.362 25.4 171.575 25.84 171.575 26.32C171.575 26.8267 171.348 27.2533 170.895 27.6C168.655 29.4667 165.722 30.4 162.095 30.4ZM166.895 18.44C167.348 18.44 167.682 18.3467 167.895 18.16C168.108 17.9733 168.215 17.6533 168.215 17.2C168.215 16.1067 167.628 15.2267 166.455 14.56C165.282 13.8667 163.722 13.52 161.775 13.52C159.802 13.52 158.242 13.9733 157.095 14.88C155.948 15.76 155.375 16.9467 155.375 18.44H166.895Z" fill="#F4D2B7"/>
</svg>
