<svg width="31" height="24" viewBox="0 0 31 24" fill="none" xmlns="http://www.w3.org/2000/svg">
<path d="M3.84185 10.224L3.04665 10.1344L3.84185 10.224ZM2.59705 21.424L3.39225 21.512L2.59705 21.424ZM21.4035 21.424L20.6083 21.512L21.4035 21.424ZM20.1587 10.224L20.9539 10.1344L20.1587 10.224ZM3.04665 10.1344L1.80185 21.3344L3.39225 21.5104L4.63705 10.3104L3.04665 10.1344ZM4.18745 24H19.8131V22.4H4.18745V24ZM22.1987 21.3344L20.9539 10.1344L19.3635 10.3104L20.6083 21.5104L22.1971 21.3344H22.1987ZM18.5667 8H5.43385V9.6H18.5699V8H18.5667ZM20.9539 10.1344C20.8885 9.54744 20.609 9.00518 20.1689 8.61139C19.7287 8.2176 19.1588 7.99992 18.5683 8V9.6C18.7652 9.59999 18.9552 9.67262 19.102 9.804C19.2487 9.93537 19.3418 10.1163 19.3635 10.312L20.9539 10.136V10.1344ZM19.8131 24C20.1505 23.9998 20.4842 23.9285 20.7922 23.7906C21.1002 23.6528 21.3757 23.4515 21.6007 23.1999C21.8257 22.9484 21.9951 22.6522 22.0978 22.3308C22.2006 22.0093 22.2344 21.6698 22.1971 21.3344L20.6083 21.5104C20.6209 21.6223 20.6097 21.7357 20.5755 21.843C20.5413 21.9503 20.4848 22.0492 20.4097 22.1332C20.3347 22.2171 20.2427 22.2843 20.1399 22.3303C20.0371 22.3763 19.9257 22.4 19.8131 22.4V24ZM1.80185 21.3344C1.76449 21.6699 1.79834 22.0096 1.90119 22.3311C2.00404 22.6527 2.17358 22.949 2.39873 23.2005C2.62388 23.4521 2.89957 23.6533 3.20779 23.7911C3.51602 23.9289 3.84984 24 4.18745 24V22.4C4.07496 22.4 3.96374 22.3763 3.86104 22.3304C3.75834 22.2845 3.66647 22.2175 3.59143 22.1337C3.51639 22.0499 3.45986 21.9512 3.42554 21.8441C3.39122 21.737 3.37988 21.6238 3.39225 21.512L1.80185 21.336V21.3344ZM4.63705 10.3104C4.65908 10.1149 4.75235 9.93444 4.89904 9.8034C5.04573 9.67235 5.23555 9.59994 5.43225 9.6V8C4.84194 8.00031 4.27244 8.21817 3.83264 8.61192C3.39284 9.00568 3.11358 9.54771 3.04825 10.1344L4.63705 10.3104ZM8.00025 6.4V5.6H6.40025V6.4H8.00025ZM16.0003 5.6V6.4H17.6003V5.6H16.0003ZM12.0003 1.6C13.0611 1.6 14.0785 2.02143 14.8287 2.77157C15.5788 3.52172 16.0003 4.53913 16.0003 5.6H17.6003C17.6003 4.11479 17.0103 2.69041 15.96 1.6402C14.9098 0.589998 13.4855 0 12.0003 0V1.6ZM8.00025 5.6C8.00025 4.53913 8.42168 3.52172 9.17182 2.77157C9.92197 2.02143 10.9394 1.6 12.0003 1.6V0C10.515 0 9.09066 0.589998 8.04045 1.6402C6.99025 2.69041 6.40025 4.11479 6.40025 5.6H8.00025Z" fill="black"/>
<rect x="16" width="12" height="12" rx="6" fill="#5B5B5B"/>
<path d="M22.0632 8.40617C21.6709 8.40617 21.3367 8.2994 21.0606 8.08586C20.7846 7.87058 20.5736 7.55895 20.4278 7.15096C20.282 6.74124 20.209 6.24645 20.209 5.66659C20.209 5.0902 20.282 4.59801 20.4278 4.19002C20.5754 3.7803 20.7872 3.4678 21.0632 3.25252C21.341 3.03551 21.6743 2.927 22.0632 2.927C22.4521 2.927 22.7846 3.03551 23.0606 3.25252C23.3384 3.4678 23.5502 3.7803 23.696 4.19002C23.8436 4.59801 23.9174 5.0902 23.9174 5.66659C23.9174 6.24645 23.8445 6.74124 23.6986 7.15096C23.5528 7.55895 23.3419 7.87058 23.0658 8.08586C22.7898 8.2994 22.4556 8.40617 22.0632 8.40617ZM22.0632 7.83325C22.4521 7.83325 22.7542 7.64575 22.9695 7.27075C23.1847 6.89575 23.2924 6.36103 23.2924 5.66659C23.2924 5.20478 23.2429 4.81155 23.1439 4.4869C23.0467 4.16224 22.9061 3.91485 22.7221 3.74471C22.5398 3.57457 22.3202 3.4895 22.0632 3.4895C21.6778 3.4895 21.3766 3.67961 21.1596 4.05981C20.9426 4.43829 20.834 4.97388 20.834 5.66659C20.834 6.12839 20.8827 6.52075 20.9799 6.84367C21.0771 7.16659 21.2169 7.41224 21.3992 7.58065C21.5832 7.74905 21.8045 7.83325 22.0632 7.83325Z" fill="white"/>
</svg>
